# xmcd
#
# Track frame offsets: 
#        150
#        18275
#        41625
#        57375
#        78975
#        102625
#        113850
#        128625
#        139400
#
# Disc length: 2048 seconds
#
# Revision: 2
# Processed by: cddbd v1.4PL0 Copyright (c) Steve Scherf et al.
# Submitted via: ExactAudioCopy v0.90b4
#
DISCID=7a07fe09
DTITLE=B.B. King - In London
DYEAR=1900
DGENRE=Blues
TTITLE0=Caldonia
TTITLE1=Blue Shadows
TTITLE2=Alexis' Boogie
TTITLE3=We Can't Agree
TTITLE4=Ghetto Woman
TTITLE5=Wet Hayshark
TTITLE6=Part-Time Love
TTITLE7=The Power Of The Blues
TTITLE8=Ain't Nobody Home
EXTD=
EXTT0=
EXTT1=
EXTT2=
EXTT3=
EXTT4=
EXTT5=
EXTT6=
EXTT7=
EXTT8=
PLAYORDER=
